<svg id="Ebene_1" data-name="Ebene 1" xmlns="http://www.w3.org/2000/svg" viewBox="0 0 541.22 94.37">
    <defs>
        <style>
            .cls-1 {
                fill: #516084;
                fill-rule: evenodd;
            }
        </style>
    </defs>
    <path class="cls-1"
        d="M164.59,76.52V85h35.07V76.19H175.72l5.63-7.77H170.46l-5.87,8.1Zm20.79-13.67,3.16-4.35H177.65l-3.15,4.35Zm7.19-9.92,5.88-8.11V36.39H165.87v8.77h21.45l-5.63,7.77Z"
        transform="translate(-22.33 -13.26)" />
    <polygon class="cls-1"
        points="229.89 71.78 229.89 63.08 208.04 63.08 208.04 51.34 225.71 51.34 225.71 42.98 208.04 42.98 208.04 31.92 228.88 31.92 228.88 23.22 197.65 23.22 197.65 71.78 229.89 71.78" />
    <polygon class="cls-1"
        points="295.7 71.78 295.7 23.22 285.32 23.22 285.32 54.72 262.18 23.22 253.01 23.22 253.01 71.78 263.4 71.78 263.4 40.96 286.53 71.78 295.7 71.78" />
    <path class="cls-1"
        d="M339.6,60.76C339.6,74.92,350.32,86,365,86s25.43-11.06,25.43-25.22S379.66,35.53,365,35.53A24.9,24.9,0,0,0,339.6,60.76Zm10.45,0c0-8.64,6.21-15.72,15-15.72s15,7.08,15,15.72-6.21,15.71-15,15.71S350.05,69.46,350.05,60.76Z"
        transform="translate(-22.33 -13.26)" />
    <polygon class="cls-1"
        points="425.85 31.92 425.85 23.22 388.28 23.22 388.28 31.92 401.83 31.92 401.83 71.78 412.22 71.78 412.22 31.92 425.85 31.92" />
    <polygon class="cls-1"
        points="480.46 31.92 480.46 23.22 442.9 23.22 442.9 31.92 456.45 31.92 456.45 71.78 466.84 71.78 466.84 31.92 480.46 31.92" />
    <path class="cls-1"
        d="M515.46,85h10.93L530.16,75h18.75L552.69,85h10.86L544.13,36.48H535L515.46,85ZM533.2,66.83c1.48-3.78,4.11-11.2,6.27-17.61h.07c2.22,6.41,4.86,13.83,6.34,17.61Z"
        transform="translate(-22.33 -13.26)" />
    <path class="cls-1"
        d="M85.47,25.08,64.41,13.26,22.33,36.87V84l42.08,23.62L106.49,84V36.87l-21-11.79Zm-3.24,5.78,17.62,9.89V80.13L64.41,100,29,80.13V40.75L64.41,20.86Z"
        transform="translate(-22.33 -13.26)" />
    <path class="cls-1"
        d="M75,52.52l5.74-7.93V36.16H48.15v8.77H69.6l-5.5,7.59Zm-7.22,10,3.16-4.37H60.05l-3.17,4.37ZM46.87,76.29v8.43H82V76H58l5.71-7.87H52.82Z"
        transform="translate(-22.33 -13.26)" />
</svg>