<?xml version="1.0" encoding="utf-8"?>
<!-- Generator: Adobe Illustrator 24.3.0, SVG Export Plug-In . SVG Version: 6.00 Build 0)  -->
<svg version="1.1" id="Layer_1" xmlns="http://www.w3.org/2000/svg" xmlns:xlink="http://www.w3.org/1999/xlink" x="0px" y="0px"
	 viewBox="0 0 531.5 357.8" style="enable-background:new 0 0 531.5 357.8;" xml:space="preserve">
<g>
	<path opacity="0.1" fill="#FFFFFF" d="M447.2,173.4L447.2,173.4L415.5,216l-63,21.2h-0.1l-31.6,42.5l-63,21.2h-0.1l-31.6,42.5l-42.4,14.3h1.3l41.5-14h0.1
		l31.6-42.5l63-21.2h0.1l31.6-42.5l63-21.2h0.1l31.6-42.5l63-21.2h0.1l20.8-28v-0.9l-21.2,28.5L447.2,173.4z M439.3,168.1
		L439.3,168.1l-31.6,42.5l-63,21.2h-0.1L313,274.3l-63,21.2h-0.1L218.3,338l-58.2,19.6h1.3l57.2-19.3h0.1l31.6-42.5l63-21.2h0.1
		l31.6-42.5l63-21.2h0.1l31.6-42.5l63-21.2h0.1l28.7-38.6v-0.9l-29.2,39.2L439.3,168.1z M470.7,61.8l-31.6,42.5l-63,21.2H376
		l-31.5,42.6l-63,21.2h-0.1l-31.6,42.6l-63,21.2h-0.1l-31.6,42.5l-63,21.2H92l-30.3,40.8h0.6L92.4,317l63-21.2h0.1l31.6-42.5
		l63-21.2h0.1l31.6-42.5l63-21.2h0.1l31.6-42.5l63-21.2h0.1l31.6-42.5l60.2-20.3v-0.5L470.7,61.8L470.7,61.8z M478.6,67.2L447,109.7
		l-63,21.2h-0.1l-31.6,42.5l-63,21.2h-0.1l-31.6,42.5l-63,21.2h-0.1l-31.6,42.5l-63,21.2h-0.1l-26.3,35.8h0.6l26.2-35.2l63-21.2h0.1
		l31.6-42.5l63-21.2h0.1l31.6-42.5l63-21.2h0.1l31.6-42.5l63-21.2h0.1l31.6-42.5l52.3-17.6v-0.4L478.6,67.2L478.6,67.2z
		 M518.1,221.3l-31.6,42.5l-63,21.2h-0.1l-31.6,42.5l-63,21.2h-0.1l-6.7,9h0.6l6.4-8.7l63-21.2h0.1l31.6-42.5l63-21.2h0.1l31.6-42.5
		l12.9-4.3v-0.4L518.1,221.3L518.1,221.3z M526,226.6l-31.6,42.5l-63,21.2h-0.1l-31.6,42.6l-63,21.2h-0.1l-2.7,3.6h0.6l2.5-3.4
		l63-21.2h0.1l31.6-42.5l63-21.2h0.1l31.6-42.5l5-1.7v-0.4L526,226.6L526,226.6z M462.9,184L462.9,184l-31.6,42.5l-63,21.2h-0.1
		l-31.6,42.5l-63,21.2h-0.1l-31.6,42.5l-10.8,3.6h1.3l9.9-3.3h0.1l31.6-42.5l63-21.2h0.1l31.6-42.5l63-21.2h0.1l31.6-42.5l63-21.2
		h0.1l5-6.7v-0.9l-5.4,7.3L462.9,184z M455,178.7L455,178.7l-31.6,42.5l-63,21.2h-0.1l-31.6,42.5l-63,21.2h-0.1L234,348.6l-26.6,9
		h1.3l25.7-8.6h0.1l31.6-42.5l63-21.2h0.1l31.6-42.5l63-21.2h0.1l31.6-42.5l63-21.2h0.1l12.9-17.3v-0.9l-13.3,17.9L455,178.7z
		 M510.2,88.4l-31.6,42.5l-63,21.2h-0.1l-31.6,42.5l-63,21.2h-0.1l-31.6,42.5l-63,21.2h-0.1L194.5,322l-63,21.2h-0.1l-10.6,14.3h0.6
		l10.4-14l63-21.2h0.1l31.6-42.5l63-21.2h0.1l31.6-42.5l63-21.2h0.1l31.6-42.5l63-21.2h0.1l31.6-42.5l20.8-7v-0.4L510.2,88.4
		L510.2,88.4z M526,99l-31.6,42.5l-63,21.2h-0.1l-31.6,42.5l-63,21.2h-0.1L305,268.9l-63,21.2h-0.1l-31.6,42.8l-63,21.2h-0.1
		l-2.7,3.6h0.6l2.5-3.4l63-21.2h0.1l31.6-42.5l63-21.2h0.1l31.6-42.5l63-21.2h0.1l31.6-42.5l63-21.2h0.1l31.6-42.5l5-1.7v-0.4
		L526,99L526,99z M518.1,93.7l-31.6,42.5l-63,21.2h-0.1l-31.6,42.5l-63,21.2h-0.1l-31.6,42.5l-63,21.2H234l-31.6,42.5l-63,21.2h-0.1
		l-6.7,9h0.6l6.4-8.7l63-21.2h0.1l31.6-42.5l63-21.2h0.1l31.6-42.5l63-21.2h0.1l31.6-42.5l63-21.2h0.1L518.5,94l12.9-4.3v-0.4
		L518.1,93.7L518.1,93.7z M486.5,72.5L454.9,115l-63,21.2h-0.1l-31.6,42.5l-63,21.2h-0.1l-31.6,42.5l-63,21.2h-0.1l-31.6,42.5
		l-63,21.2h-0.1l-22.4,30.2h0.6l22.2-29.9l63-21.2h0.1l31.6-42.5l63-21.2h0.1l31.6-42.5l63-21.2h0.1l31.6-42.5l63-21.2h0.1
		l31.6-42.5l44.4-15v-0.4L486.5,72.5L486.5,72.5z M462.9,56.5L462.9,56.5L431.3,99l-63,21.2h-0.1l-31.6,42.5l-63,21.2h-0.1
		l-31.6,42.5l-63,21.2h-0.1l-31.6,42.5l-63,21.2h-0.1l-31.6,42.8l-10.8,3.6H43l9.9-3.3H53l31.5-42.5l63-21.2h0.1l31.6-42.5l63-21.2
		h0.1l31.6-42.5l63-21.2h0.1l31.6-42.5l63-21.2h0.1l31.6-42.5l63-21.2h0.1l5-6.7v-0.9l-5.4,7.3L462.9,56.5z M494.4,77.8l-31.6,42.5
		l-63,21.2h-0.1L368.1,184l-63,21.2H305l-31.5,42.6l-63,21.2h-0.1l-31.6,42.5l-63,21.2h-0.1l-18.5,24.9h0.6l18.3-24.6l63-21.2h0.1
		l31.6-42.5l63-21.2h0.1l31.6-42.5l63-21.2h0.1l31.6-42.5l63-21.2h0.1l31.6-42.5l36.6-12.3v-0.4L494.4,77.8L494.4,77.8z M510.2,216
		l-31.6,42.5l-63,21.2h-0.1l-31.6,42.5l-63,21.2h-0.1l-10.6,14.3h0.6l10.4-14l63-21.2h0.1l31.6-42.5l63-21.2h0.1l31.6-42.5l20.8-7
		v-0.4L510.2,216L510.2,216z M518.1,30l-63,21.2H455l-31.6,42.5l-63,21.2h-0.1l-31.6,42.5l-63,21.2h-0.1L234,221.1l-63,21.2h-0.1
		l-31.6,42.5l-63,21.2h-0.1l-31.6,42.5l-26.6,9h1.3l25.7-8.6h0.1l31.6-42.5l63-21.2h0.1l31.6-42.5l63-21.2h0.1l31.6-42.5l63-21.2
		h0.1l31.6-42.5l63-21.2h0.1l31.6-42.5l63-21.2h0.1l12.8-17.5V12L518.1,30z M502.3,83.1l-31.6,42.5l-63,21.2h-0.1L376,189.3
		l-63,21.2h-0.1L281.3,253l-63,21.2h-0.1l-31.5,42.7l-63,21.2h-0.1l-14.5,19.6h0.6l14.3-19.3l63-21.2h0.1l31.6-42.5l63-21.2h0.1
		l31.6-42.5l63-21.2h0.1l31.6-42.5l63-21.2h0.1l31.6-42.5l28.7-9.7v-0.4L502.3,83.1L502.3,83.1z M486.5,327.6l-22.4,30.2h0.6
		l22.2-29.9l44.4-15v-0.4L486.5,327.6L486.5,327.6z M494.4,332.9l-18.5,24.9h0.6l18.3-24.6l36.6-12.3v-0.4L494.4,332.9L494.4,332.9z
		 M470.7,316.9l-30.3,40.8h0.6l30.1-40.6l60.2-20.3v-0.4L470.7,316.9L470.7,316.9z M502.3,338.2l-14.5,19.6h0.6l14.3-19.3l28.7-9.7
		v-0.4L502.3,338.2L502.3,338.2z M462.9,311.6L462.9,311.6l-31.6,42.5l-10.8,3.6h1.3l9.9-3.3h0.1l31.6-42.5l63-21.2h0.1l5-6.7v-0.9
		l-5.4,7.3L462.9,311.6z M526,354.1l-2.7,3.6h0.6l2.5-3.4l5-1.7v-0.4L526,354.1L526,354.1z M518.1,348.8l-6.7,9h0.6l6.4-8.7
		l12.9-4.3v-0.4L518.1,348.8L518.1,348.8z M502.3,210.6l-31.6,42.5l-63,21.2h-0.1L376,316.9l-63,21.2h-0.1l-14.5,19.6h0.6l14.3-19.3
		l63-21.2h0.1l31.6-42.5l63-21.2h0.1l31.6-42.5l28.7-9.7v-0.4L502.3,210.6L502.3,210.6z M510.2,343.5l-10.6,14.3h0.6l10.4-14l20.8-7
		v-0.4L510.2,343.5L510.2,343.5z M455,306.3L455,306.3l-31.6,42.5l-26.6,9h1.3l25.7-8.6h0.1l31.6-42.5l63-21.2h0.1l12.9-17.3v-0.9
		l-13.3,17.9L455,306.3z M478.6,194.7L447,237.2l-63,21.2h-0.1l-31.6,42.5l-63,21.2h-0.1l-26.4,35.5h0.6l26.2-35.2l63-21.2h0.1
		l31.6-42.5l63-21.2h0.1L479,195l52.3-17.6v-0.5L478.6,194.7L478.6,194.7z M494.4,205.3l-31.6,42.5l-63,21.2h-0.1l-31.6,42.5
		l-63,21.2H305l-18.5,25.1h0.6l18.3-24.6l63-21.2h0.1l31.6-42.5l63-21.2h0.1l31.6-42.5l36.6-12.3v-0.6L494.4,205.3L494.4,205.3z
		 M486.5,200l-31.6,42.5l-63,21.2h-0.1l-31.6,42.5l-63,21.2h-0.1l-22.4,30.2h0.6l22.2-29.9l63-21.2h0.1l31.6-42.5l63-21.2h0.1
		l31.6-42.5l44.4-15v-0.4L486.5,200L486.5,200z M470.7,189.4l-31.5,42.5l-63,21.2h-0.1l-31.6,42.6l-63,21.2h-0.1l-30.3,40.8h0.6
		l30.1-40.6l63-21.2h0.1l31.6-42.5l63-21.2h0.1l31.6-42.5l60.2-20.3V169L470.7,189.4L470.7,189.4z M447.2,301L447.2,301l-31.7,42.5
		l-42.4,14.3h1.3l41.5-14h0.1l31.6-42.5l63-21.2h0.1l20.8-28v-0.9l-21.2,28.5L447.2,301z M439.3,295.6L439.3,295.6l-31.6,42.5
		l-58.2,19.6h1.3l57.2-19.3h0.1l31.6-42.5l63-21.2h0.1l28.7-38.6v-0.9l-29.1,39.2L439.3,295.6z M478.6,322.2l-26.4,35.5h0.6
		l26.2-35.2l52.3-17.6v-0.4L478.6,322.2L478.6,322.2z M37.2,152.5l63-21.2h0.1l31.6-42.5l63-21.2h0.1l31.5-42.7l63-21.2h0.1l2.7-3.6
		h-0.6l-2.5,3.4l-63,21.2h-0.1l-31.6,42.5l-63,21.2h-0.1l-31.5,42.5l-63,21.2h-0.1L5.2,194.6l-5,1.7v0.4l5.4-1.8L37.2,152.5z
		 M21.4,205.6L53,163.1l63-21.2h0.1l31.6-42.5l63-21.2h0.1l31.6-42.5l63-21.2h0.1l10.6-14.3h-0.6l-10.4,14l-63,21.2H242l-31.6,42.5
		l-63,21.2h-0.1l-31.6,42.5l-63,21.2h-0.1l-31.7,42.5l-20.8,7v0.4L21.4,205.6L21.4,205.6z M76.5,242.8L76.5,242.8l31.6-42.5l63-21.2
		h0.1l31.6-42.5l63-21.2h0.1l31.6-42.5l63-21.2h0.1l31.6-42.5l26.6-9h-1.3l-25.7,8.6h-0.1l-31.6,42.5l-63,21.2H297L265.4,115
		l-63,21.2h-0.1l-31.6,42.5l-63,21.2h-0.1L76,242.4l-63,21.2h-0.1L0,280.9v0.9l13.5-17.7L76.5,242.8z M68.6,237.5L68.6,237.5
		l31.6-42.5l63-21.2h0.1l31.6-42.5l63-21.2h0.1l31.6-42.5l63-21.2h0.1l31.6-42.5l10.8-3.6h-1.3l-9.9,3.3h-0.1l-31.4,42.3l-63,21.2
		h-0.1l-31.6,42.5l-63,21.2h-0.1L163,173.3l-63,21.2h-0.1L68.3,237l-63,21.2H5.2l-5,6.7v0.9l5.4-7.3L68.6,237.5z M16.4,0h-1.3
		L5.2,3.3H5.1l-5,6.7v0.9l5.4-7.3L16.4,0z M45,221.6l31.6-42.5l63-21.2h0.1l31.6-42.5l63-21.2h0.1L266,51.7l63-21.2h0.1l22.4-30.2
		h-0.6L328.7,30l-63,21.2h-0.1L234,93.7l-63,21.2h-0.1l-31.6,42.5l-63,21.2h-0.1l-31.6,42.5l-44.4,15v0.4L45,221.6L45,221.6z
		 M37.2,216.2l31.6-42.5l63-21.2h0.1l31.6-42.5l63-21.2h0.1l31.6-42.5l63-21.2h0.1l18.5-24.9h-0.6l-18.3,24.6l-63,21.2h-0.1
		l-31.6,42.5l-63,21.2h-0.1l-31.6,42.5l-63,21.2h-0.1l-31.6,42.5L0.2,228.2v0.4L37.2,216.2L37.2,216.2z M29.3,210.9l31.6-42.5
		l63-21.2h0.1l31.5-42.6l63-21.2h0.1l31.6-42.5l63-21.2h0.1l14.5-19.6h-0.6l-14.3,19.3l-63,21.2h-0.1l-31.6,42.5l-63,21.2h-0.1
		l-31.6,42.6l-63,21.2h-0.1l-31.6,42.5l-28.7,9.7v0.4L29.3,210.9L29.3,210.9z M21.4,333.2L53,290.7l63-21.2h0.1l31.6-42.5l63-21.2
		h0.1l31.6-42.5l63-21.2h0.1l31.6-42.5l63-21.2h0.1l31.6-42.5l63-21.2h0.1l10.6-14.3h-0.6l-10.4,14l-63,21.2h-0.1l-31.6,42.5
		l-63,21.2h-0.1l-31.6,42.5l-63,21.2H242l-31.6,42.5l-63,21.2h-0.1l-31.6,42.5l-63,21.2h-0.1l-31.7,42.5l-20.8,7v0.4L21.4,333.2
		L21.4,333.2z M13.5,327.8l31.6-42.5l63-21.2h0.1l31.6-42.5l63-21.2h0.1l31.6-42.5l63-21.2h0.1l31.6-42.5l63-21.2h0.1l31.6-42.5
		l63-21.2h0.1l6.7-9h-0.6L486.7,9l-63.2,20.9h-0.1l-31.6,42.5l-63,21.2h-0.1l-31.6,42.5l-63,21.2H234l-31.6,42.5l-63,21.2h-0.1
		l-31.6,42.5l-63,21.2h-0.1L13,327.2l-12.9,4.3v0.4L13.5,327.8L13.5,327.8z M37.2,280l63-21.2h0.1l31.6-42.5l63-21.2h0.1l31.6-42.5
		l63-21.2h0.1l31.6-42.5l63-21.2h0.1l31.5-42.8l63-21.2h0.1l2.7-3.6h-0.6l-2.5,3.4l-63,21.2h-0.1l-31.6,42.5l-63,21.2h-0.1
		l-31.6,42.5l-63,21.2h-0.1l-31.6,42.5l-63,21.3h-0.1l-31.6,42.5l-63,21.2h-0.1L5.1,322.1l-5,1.7v0.4l5.4-1.8L37.2,280z M84.4,248.2
		L84.4,248.2l31.6-42.5l63-21.2h0.1l31.6-42.5l63-21.2h0.1l31.7-42.7l63-21.2h0.1l31.6-42.5L442.5,0h-1.3l-41.5,14h-0.1L368,56.5
		l-63,21.2h-0.1l-31.4,42.6l-63,21.2h-0.1L178.8,184l-63,21.2h-0.1l-31.6,42.5l-63,21.2H21l-20.8,28v0.9l21.2-28.5L84.4,248.2z
		 M37.2,343.8l31.6-42.5l63-21.2h0.1l31.6-42.5l63-21.2h0.1l31.6-42.5l63-21.2h0.1l31.6-42.5l63-21.2h0.1l31.5-42.8l63-21.2h0.1
		l18.5-24.9h-0.6l-18.3,24.6l-63,21.2h-0.1l-31.6,42.5l-63,21.2h-0.1l-31.6,42.5l-63,21.2h-0.1l-31.6,42.5l-63,21.2H163l-31.6,42.5
		l-63,21.2h-0.1l-31.6,42.5L0.1,355.5v0.4L37.2,343.8L37.2,343.8z M92.3,253.5L92.3,253.5l31.6-42.5l63-21.2h0.1l31.6-42.5l63-21.2
		h0.1l31.6-42.5l63-21.2h0.1L408,19.9l58.2-19.6h-1.3l-57.2,19.3h-0.1L376,62.1l-63,21.2h-0.1l-31.6,42.5l-63,21.2h-0.1l-31.6,42.5
		l-63,21.2h-0.1l-31.6,42.5l-63,21.2h-0.1L0.1,313v0.9l29.1-39.2L92.3,253.5z M52.9,226.9l31.6-42.5l63-21.2h0.1l31.6-42.5l63-21.2
		h0.1L273.9,57l63-21.2h0.1l26.4-35.5h-0.6l-26.2,35l-63,21.2h-0.1L241.9,99l-63,21.2h-0.1l-31.6,42.5l-63,21.2h-0.1l-31.6,42.7
		L0.2,244.2v0.4L52.9,226.9L52.9,226.9z M29.3,338.5L60.9,296l63-21.2h0.1l31.6-42.5l63-21.2h0.1l31.6-42.5l63-21.2h0.1l31.6-42.5
		l63-21.2h0.1l31.5-42.8l63-21.2h0.1l14.5-19.6h-0.6l-14.3,19.3l-63,21.2h-0.1l-31.6,42.5l-63,21.2h-0.1l-31.6,42.6l-63,21.2h-0.1
		l-31.6,42.5l-63,21.2h-0.1l-31.6,42.6l-63,21.2h-0.1l-31.6,42.5l-28.7,9.7v0.4L29.3,338.5L29.3,338.5z M13.5,200.3l31.6-42.5
		l63-21.2h0.1l31.6-42.5l63-21.2h0.1l31.6-42.5l63-21.2h0.1l6.7-9h-0.6l-6.4,8.7l-63.2,21H234l-31.6,42.5l-63,21.2h-0.1l-31.6,42.5
		l-63,21.2h-0.1L13,199.8l-12.9,4.3v0.4L13.5,200.3L13.5,200.3z M29.3,83.4l31.5-42.5l63-21.2h0.1L138.5,0h-0.6l-14.4,19.3l-63,21.3
		h-0.1L28.8,83.1L0.1,92.8v0.4L29.3,83.4L29.3,83.4z M45,94l31.6-42.5l63-21.2h0.1l22.4-30.2h-0.6L139.3,30l-63,21.2h-0.1L44.6,93.7
		l-44.4,15v0.4L45,94L45,94z M52.9,99.3l31.6-42.5l63-21.2h0.1L174,0.1h-0.6l-26.2,35.2l-63,21.2h-0.1L52.5,99L0.2,116.6v0.4
		L52.9,99.3L52.9,99.3z M37.2,88.7l31.6-42.5l63-21.2h0.1l18.5-24.9h-0.6l-18.3,24.6L68.4,45.9h-0.1L36.7,88.4L0.1,100.7v0.4
		L37.2,88.7L37.2,88.7z M60.8,104.6l31.6-42.5l63-21.2h0.1l30.3-40.8h-0.6l-30.1,40.5l-63,21.2H92l-31.6,42.6L0.2,124.7v0.4
		L60.8,104.6L60.8,104.6z M40.1,0h-1.3L13.1,8.6H13L0.2,26.1v0.8L13.5,9L40.1,0z M87.4,0h-1.3L28.9,19.3h-0.1L0.2,57.9v0.9
		l29.1-39.2L87.4,0z M63.8,0h-1.3L21,14h-0.1L0.1,42v0.9l21.3-28.6L63.8,0z M68.6,110L68.6,110l31.6-42.5l63-21.2h0.1l31.6-42.5
		l10.8-3.6h-1.2l-9.9,3.3h-0.1L163,45.9l-63,21.2h-0.1l-31.6,42.6L5.2,130.9H5.1l-5,6.7v0.9l5.4-7.3L68.6,110z M21.4,78.1l31.5-42.5
		l63-21.2h0.1l10.6-14.3H126l-10.4,14l-63,21.2h-0.1L20.9,77.8l-20.8,7v0.4L21.4,78.1L21.4,78.1z M92.3,125.9L92.3,125.9l31.6-42.5
		l63-21.2h0.1l31.6-42.5l58.2-19.6h-1.3l-57.2,19.3h-0.1l-31.6,42.5l-63,21.2h-0.1L92,125.6l-63,21.2h-0.1L0.2,185.4v0.9l29.1-39.2
		L92.3,125.9z M76.5,115.3L76.5,115.3l31.6-42.5l63-21.2h0.1l31.6-42.5l26.6-9h-1.3l-25.6,8.6h-0.1l-31.6,42.5l-63,21.2h-0.1
		L76.2,115l-63,21.2h-0.1L0.2,153.5v0.9l13.3-17.9L76.5,115.3z M84.4,120.6L84.4,120.6l31.7-42.5l63-21.2h0.1l31.6-42.5l42.4-14.3
		h-1.3l-41.5,14h-0.1l-31.6,42.5l-63,21.2h-0.1l-31.5,42.5l-63,21.2H21l-20.8,28v0.9l21.2-28.5L84.4,120.6z M13.5,72.8L45,30.2
		L108,9h0.1l6.7-9h-0.6l-6.4,8.7L44.7,29.9h-0.1L13.1,72.5L0.2,76.8v0.4L13.5,72.8L13.5,72.8z M37.2,24.9l63-21.2h0.1l2.7-3.6h-0.6
		l-2.5,3.4l-63,21.2h-0.1L5.2,67.2l-5,1.7v0.4l5.4-1.8L37.2,24.9z M60.8,232.2l31.6-42.5l63-21.2h0.1l31.6-42.6l63-21.2h0.1
		l31.6-42.5l63-21.2h0.1l30.3-40.8h-0.6l-30.1,40.4l-63,21.2h-0.1l-31.6,42.5l-63,21.2h-0.1L155.1,168l-63,21.2H92l-31.6,42.7
		L0.2,252.2v0.4L60.8,232.2L60.8,232.2z"/>
</g>
</svg>
