<?xml version="1.0" encoding="utf-8"?>
<!-- Generator: Adobe Illustrator 24.3.0, SVG Export Plug-In . SVG Version: 6.00 Build 0)  -->
<svg version="1.1" id="Layer_1" xmlns="http://www.w3.org/2000/svg" xmlns:xlink="http://www.w3.org/1999/xlink" x="0px" y="0px"
	 viewBox="0 0 500 500" style="enable-background:new 0 0 500 500;" xml:space="preserve">
<style type="text/css">
	.st0{fill:#E6E6E6;}
	.st1{fill-rule:evenodd;clip-rule:evenodd;fill:#9E9E9E;}
</style>
<g>
	<rect class="st0" width="500" height="500"/>
</g>
<g>
	<path class="st1" d="M325.5,123l-75.4-42.3L99.4,165.2V334l150.7,84.6L400.8,334V165.2L325.5,123L325.5,123z M313.9,143.7
		l63.1,35.4v141l-126.9,71.2l-126.8-71.2v-141l126.8-71.2L313.9,143.7z"/>
</g>
<g>
	<path class="st1" d="M288,221.2l20.6-28.4v-30.2H191.8V194h76.8L249,221.2H288z M262.2,257l11.3-15.7h-39L223.1,257H262.2z
		 M187.3,306.4v30.2h125.8v-31.2h-86l20.5-28.2h-39L187.3,306.4z"/>
</g>
</svg>
