<?xml version="1.0" encoding="utf-8"?>
<!-- Generator: Adobe Illustrator 24.3.0, SVG Export Plug-In . SVG Version: 6.00 Build 0)  -->
<svg version="1.1" id="Layer_1" xmlns="http://www.w3.org/2000/svg" xmlns:xlink="http://www.w3.org/1999/xlink" x="0px" y="0px"
	 viewBox="0 0 278 50.3" style="enable-background:new 0 0 278 50.3;" xml:space="preserve">
<style type="text/css">
	.st0{fill-rule:evenodd;clip-rule:evenodd;}
</style>
<g>
	<path d="M0,24.5h9.6c2.4,0,4.3,0.7,5.5,1.9c1.2,1.3,1.9,2.9,1.9,5c0,1.1-0.2,2.1-0.7,3c-0.3,0.5-0.6,0.9-1.1,1.3
		c-0.5,0.4-1.1,0.8-1.8,1.2v0.1c1.4,0.4,2.4,1.1,3.1,2.2c0.6,1.1,1,2.4,1,3.7c0,2.2-0.7,4-2,5.3c-1.3,1.3-2.9,2-4.9,2H0V24.5z
		 M3.8,27.9v7.4h5.4c1.4,0,2.4-0.4,3-1.1c0.7-0.7,1-1.5,1-2.6c0-1-0.3-1.9-1-2.6c-0.6-0.7-1.7-1-3-1H3.8z M3.8,38.7v7.7h5.8
		c1.4,0,2.4-0.4,3.1-1.2c0.6-0.8,1-1.6,1-2.7c0-1.1-0.3-2-1-2.7c-0.6-0.7-1.7-1.1-3.1-1.1H3.8z"/>
	<path d="M22,24.5h3.8v22h12.1v3.7H22V24.5z"/>
	<path d="M41.1,37.3c0-3,0.1-5,0.3-6c0.2-1,0.5-1.8,0.8-2.4c0.6-1.2,1.6-2.2,2.9-3.2c1.3-0.9,2.9-1.4,4.9-1.4c2,0,3.6,0.5,4.9,1.4
		c1.3,0.9,2.2,2,2.8,3.2c0.4,0.6,0.7,1.4,0.9,2.4c0.1,1,0.2,3,0.2,6c0,2.9-0.1,4.9-0.2,5.9c-0.2,1-0.4,1.9-0.9,2.5
		c-0.6,1.2-1.5,2.2-2.8,3.1c-1.3,0.9-3,1.4-4.9,1.5c-2,0-3.6-0.5-4.9-1.5c-1.3-0.9-2.3-1.9-2.9-3.1c-0.2-0.4-0.3-0.8-0.5-1.1
		c-0.1-0.4-0.2-0.8-0.3-1.4C41.2,42.2,41.1,40.2,41.1,37.3z M44.9,37.3c0,2.5,0.1,4.2,0.3,5.1c0.2,0.9,0.5,1.6,1,2.2
		c0.4,0.5,0.9,1,1.6,1.3c0.6,0.4,1.4,0.6,2.3,0.6c0.9,0,1.7-0.2,2.3-0.6c0.6-0.3,1.1-0.8,1.5-1.3c0.5-0.6,0.8-1.3,1-2.2
		c0.2-0.9,0.3-2.6,0.3-5.1c0-2.5-0.1-4.2-0.3-5.2c-0.2-0.9-0.5-1.6-1-2.1c-0.4-0.5-0.9-1-1.5-1.3c-0.7-0.3-1.4-0.5-2.3-0.5
		c-0.9,0-1.6,0.2-2.3,0.5c-0.6,0.4-1.2,0.8-1.6,1.3c-0.5,0.6-0.8,1.3-1,2.1C45,33.1,44.9,34.8,44.9,37.3z"/>
	<path d="M80.7,43c-0.5,2.4-1.6,4.2-3.1,5.5c-1.6,1.3-3.4,1.9-5.6,1.9c-2,0-3.6-0.5-4.9-1.5c-1.3-0.9-2.3-1.9-2.9-3.1
		c-0.2-0.4-0.3-0.8-0.5-1.1c-0.1-0.4-0.2-0.8-0.3-1.4c-0.2-1-0.3-3-0.3-5.9c0-3,0.1-5,0.3-6c0.2-1,0.5-1.8,0.8-2.4
		c0.6-1.2,1.6-2.2,2.9-3.2c1.3-0.9,2.9-1.4,4.9-1.4c2.4,0,4.3,0.8,5.9,2.2c1.5,1.5,2.5,3.2,2.9,5.4h-4c-0.3-1-0.9-1.9-1.7-2.6
		c-0.8-0.7-1.9-1.1-3.1-1.1c-0.9,0-1.6,0.2-2.3,0.5C69,29,68.5,29.5,68.1,30c-0.5,0.6-0.8,1.3-1,2.1c-0.2,0.9-0.3,2.6-0.3,5.2
		c0,2.5,0.1,4.2,0.3,5.1c0.2,0.9,0.5,1.6,1,2.2c0.4,0.5,0.9,1,1.6,1.3c0.6,0.4,1.4,0.6,2.3,0.6c2.1,0,3.7-1.2,4.7-3.5H80.7z"/>
	<path d="M84,24.5h3.8v13.2h0.1L98,24.5h4.5l-8,10.1l8.8,15.5h-4.5l-6.8-12.5l-4.4,4.7v7.8H84V24.5z"/>
	<path d="M115.3,24.5h15.9v3.7H119v7.3h10.3v3.4H119v7.5h12.1v3.7h-15.9V24.5z"/>
	<path d="M142,40.6l-5.4,9.5h-4.2l7.6-13.1l-7.1-12.5h4.3l5,8.9l5-8.9h4.2L143.9,37l7.8,13.1h-4.3L142,40.6z"/>
	<path d="M154.6,24.5h9c1,0,1.9,0.1,2.8,0.3c0.9,0.2,1.8,0.8,2.8,1.5c0.8,0.6,1.4,1.4,1.9,2.5c0.5,1,0.8,2.2,0.8,3.7
		c0,1.9-0.6,3.6-1.9,5.2c-1.3,1.6-3.3,2.5-5.8,2.5h-5.7v10h-3.8V24.5z M158.3,36.5h5.6c1.4,0,2.5-0.5,3.2-1.3c0.7-0.8,1-1.8,1-2.8
		c0-0.9-0.1-1.6-0.4-2.2c-0.3-0.5-0.7-0.9-1.2-1.3c-0.8-0.5-1.7-0.7-2.7-0.7h-5.4V36.5z"/>
	<path d="M175.9,24.5h3.8v22h12.1v3.7h-15.9V24.5z"/>
	<path d="M195.1,37.3c0-3,0.1-5,0.3-6c0.2-1,0.5-1.8,0.8-2.4c0.6-1.2,1.6-2.2,2.9-3.2c1.3-0.9,2.9-1.4,4.9-1.4c2,0,3.6,0.5,4.9,1.4
		c1.3,0.9,2.2,2,2.8,3.2c0.4,0.6,0.7,1.4,0.9,2.4c0.1,1,0.2,3,0.2,6c0,2.9-0.1,4.9-0.2,5.9c-0.2,1-0.4,1.9-0.9,2.5
		c-0.6,1.2-1.5,2.2-2.8,3.1c-1.3,0.9-3,1.4-4.9,1.5c-2,0-3.6-0.5-4.9-1.5c-1.3-0.9-2.3-1.9-2.9-3.1c-0.2-0.4-0.3-0.8-0.5-1.1
		c-0.1-0.4-0.2-0.8-0.3-1.4C195.2,42.2,195.1,40.2,195.1,37.3z M198.9,37.3c0,2.5,0.1,4.2,0.3,5.1c0.2,0.9,0.5,1.6,1,2.2
		c0.4,0.5,0.9,1,1.6,1.3c0.6,0.4,1.4,0.6,2.3,0.6c0.9,0,1.7-0.2,2.3-0.6c0.6-0.3,1.1-0.8,1.5-1.3c0.5-0.6,0.8-1.3,1-2.2
		c0.2-0.9,0.3-2.6,0.3-5.1c0-2.5-0.1-4.2-0.3-5.2c-0.2-0.9-0.5-1.6-1-2.1c-0.4-0.5-0.9-1-1.5-1.3c-0.7-0.3-1.4-0.5-2.3-0.5
		c-0.9,0-1.6,0.2-2.3,0.5c-0.6,0.4-1.2,0.8-1.6,1.3c-0.5,0.6-0.8,1.3-1,2.1C198.9,33.1,198.9,34.8,198.9,37.3z"/>
	<path d="M217.9,24.5h9.7c2.1,0,3.8,0.6,5.1,1.7c1.6,1.3,2.4,3.1,2.5,5.5c0,3.5-1.6,5.8-4.8,7.1l5.7,11.4h-4.5l-5.1-11h-4.8v11h-3.8
		V24.5z M221.7,35.7h5.7c1.4,0,2.5-0.4,3.2-1.3c0.7-0.8,1-1.7,1-2.8c0-1.3-0.4-2.3-1.2-2.9c-0.6-0.5-1.6-0.8-2.8-0.8h-5.9V35.7z"/>
	<path d="M239.9,24.5h15.9v3.7h-12.1v7.3h10.3v3.4h-10.3v7.5h12.1v3.7h-15.9V24.5z"/>
	<path d="M259.9,24.5h9.7c2.1,0,3.8,0.6,5.1,1.7c1.6,1.3,2.4,3.1,2.5,5.5c0,3.5-1.6,5.8-4.8,7.1l5.7,11.4h-4.5l-5.1-11h-4.8v11h-3.8
		V24.5z M263.6,35.7h5.7c1.4,0,2.5-0.4,3.2-1.3c0.7-0.8,1-1.7,1-2.8c0-1.3-0.4-2.3-1.2-2.9c-0.6-0.5-1.6-0.8-2.8-0.8h-5.9V35.7z"/>
</g>
<g>
	<path class="st0" d="M22.9,10.2v1.4h5.6v-1.4h-3.9l0.9-1.3h-1.8L22.9,10.2L22.9,10.2z M26.2,8l0.5-0.7H25L24.5,8H26.2z M27.4,6.4
		l0.9-1.3V3.7h-5.2v1.4h3.5l-0.9,1.3H27.4z"/>
	<polygon class="st0" points="37,11.6 37,10.2 33.5,10.2 33.5,8.3 36.3,8.3 36.3,6.9 33.5,6.9 33.5,5.1 36.8,5.1 36.8,3.7 31.8,3.7 
		31.8,11.6 	"/>
	<polygon class="st0" points="47.6,11.6 47.6,3.7 45.9,3.7 45.9,8.8 42.2,3.7 40.7,3.7 40.7,11.6 42.4,11.6 42.4,6.6 46.1,11.6 	"/>
	<path class="st0" d="M51.1,7.6c0,2.3,1.7,4.1,4.1,4.1s4.1-1.8,4.1-4.1s-1.7-4.1-4.1-4.1c-2.2,0-4,1.7-4.1,3.9
		C51.1,7.6,51.1,7.6,51.1,7.6z M52.7,7.6c0-1.4,1-2.5,2.4-2.5c1.4,0,2.4,1.1,2.4,2.5s-1,2.5-2.4,2.5C53.7,10.2,52.7,9,52.7,7.6
		L52.7,7.6z"/>
	<polygon class="st0" points="68.5,5.1 68.5,3.7 62.5,3.7 62.5,5.1 64.7,5.1 64.7,11.6 66.3,11.6 66.3,5.1 	"/>
	<polygon class="st0" points="77.3,5.1 77.3,3.7 71.3,3.7 71.3,5.1 73.5,5.1 73.5,11.6 75.1,11.6 75.1,5.1 	"/>
	<path class="st0" d="M79.4,11.5h1.8l0.6-1.6h3l0.6,1.6h1.7L84,3.7h-1.5L79.4,11.5z M82.2,8.6c0.2-0.6,0.7-1.8,1-2.8h0
		c0.4,1,0.8,2.2,1,2.8H82.2z"/>
	<path class="st0" d="M10.2,1.9L6.8,0L0,3.8v7.6l6.8,3.8l6.8-3.8V3.8L10.2,1.9L10.2,1.9z M9.6,2.8l2.8,1.6v6.3L6.8,14l-5.7-3.2V4.4
		l5.7-3.2L9.6,2.8z"/>
	<path class="st0" d="M8.5,6.3L9.4,5V3.7H4.2v1.4h3.5L6.7,6.3H8.5z M7.3,7.9l0.5-0.7H6.1L5.6,7.9H7.3z M4,10.1v1.4h5.7v-1.4H5.7
		l0.9-1.3H4.9L4,10.1z"/>
</g>
</svg>
